<svg width="24" height="24" viewBox="0 0 24 24" fill="none" xmlns="http://www.w3.org/2000/svg">
<path d="M7.06831 23.1527C3.72249 23.1527 1 20.4302 1 17.0844C1 15.4637 1.63066 13.9411 2.77741 12.7944L12.6416 2.93018C13.7884 1.78343 15.3109 1.15277 16.9316 1.15277C20.2774 1.15277 22.9999 3.87526 22.9999 7.22107C22.9999 8.64373 22.4966 10.0251 21.5818 11.1105L20.5313 10.2241C21.2372 9.38623 21.6249 8.32015 21.6249 7.22107C21.6249 4.63334 19.5193 2.52776 16.9316 2.52776C15.6794 2.52776 14.5015 3.01635 13.6142 3.90276L3.74999 13.767C2.86357 14.6543 2.37499 15.8322 2.37499 17.0844C2.37499 19.6721 4.48057 21.7777 7.06831 21.7777C8.22238 21.7777 9.32513 21.3551 10.173 20.5888L11.0952 21.609C9.99429 22.6045 8.5643 23.1527 7.06831 23.1527Z" fill="#9F5DE2"/>
<path d="M16.9316 1.15277C20.2774 1.15277 22.9999 3.87526 22.9999 7.22107C22.9999 8.84173 22.3692 10.3643 21.2225 11.5111L11.3583 21.3753C10.2115 22.522 8.68896 23.1527 7.06831 23.1527C3.72249 23.1527 1 20.4302 1 17.0844C1 15.6617 1.50325 14.2803 2.41808 13.195L3.46857 14.0814C2.76274 14.9192 2.37499 15.9853 2.37499 17.0844C2.37499 19.6721 4.48057 21.7777 7.06831 21.7777C8.32047 21.7777 9.49838 21.2891 10.3857 20.4027L20.2499 10.5385C21.1363 9.65115 21.6249 8.47324 21.6249 7.22107C21.6249 4.63334 19.5193 2.52776 16.9316 2.52776C15.7775 2.52776 14.6748 2.95035 13.8269 3.71668L12.9047 2.69643C14.0056 1.70094 15.4356 1.15277 16.9316 1.15277Z" fill="#9F5DE2"/>
<path d="M7.93563 9.06386L8.9079 8.09159L15.9439 15.1276L14.9716 16.0999L7.93563 9.06386Z" fill="#9F5DE2"/>
<path d="M7.06831 23.1527C3.72249 23.1527 1 20.4302 1 17.0844M7.06831 23.1527C8.5643 23.1527 9.99429 22.6045 11.0952 21.609L10.173 20.5888C9.32513 21.3551 8.22238 21.7777 7.06831 21.7777M7.06831 23.1527C8.68896 23.1527 10.2115 22.522 11.3583 21.3753L21.2225 11.5111C22.3692 10.3643 22.9999 8.84173 22.9999 7.22107M1 17.0844C1 15.4637 1.63066 13.9411 2.77741 12.7944L12.6416 2.93018C13.7884 1.78343 15.3109 1.15277 16.9316 1.15277M1 17.0844C1 15.6617 1.50325 14.2803 2.41808 13.195L3.46857 14.0814C2.76274 14.9192 2.37499 15.9853 2.37499 17.0844M16.9316 1.15277C20.2774 1.15277 22.9999 3.87526 22.9999 7.22107M16.9316 1.15277C15.4356 1.15277 14.0056 1.70094 12.9047 2.69643L13.8269 3.71668C14.6748 2.95035 15.7775 2.52776 16.9316 2.52776M22.9999 7.22107C22.9999 8.64373 22.4966 10.0251 21.5818 11.1105L20.5313 10.2241C21.2372 9.38623 21.6249 8.32015 21.6249 7.22107M21.6249 7.22107C21.6249 4.63334 19.5193 2.52776 16.9316 2.52776M21.6249 7.22107C21.6249 8.47324 21.1363 9.65115 20.2499 10.5385L10.3857 20.4027C9.49838 21.2891 8.32047 21.7777 7.06831 21.7777M16.9316 2.52776C15.6794 2.52776 14.5015 3.01635 13.6142 3.90276L3.74999 13.767C2.86357 14.6543 2.37499 15.8322 2.37499 17.0844M2.37499 17.0844C2.37499 19.6721 4.48057 21.7777 7.06831 21.7777M7.93563 9.06386L8.9079 8.09159L15.9439 15.1276L14.9716 16.0999L7.93563 9.06386Z" stroke="#9F5DE2" stroke-width="0.5"/>
</svg>
