<svg width="15" height="16" viewBox="0 0 15 16" fill="none" xmlns="http://www.w3.org/2000/svg">
<path d="M14 2.66666H12.6666H10.6666V0.666656C10.6667 0.298656 10.3687 0 9.99997 0H4.66666C4.298 0 4 0.298656 4 0.666656V2.66666H2H0.666656C0.298 2.66666 0 2.96531 0 3.33331C0 3.70131 0.297969 4 0.666656 4H1.33331V14C1.33331 15.1027 2.23066 16 3.33331 16H11.3333C12.436 16 13.3333 15.1027 13.3333 14V4H14C14.3686 4 14.6666 3.70134 14.6666 3.33334C14.6666 2.96534 14.3687 2.66666 14 2.66666ZM5.33331 1.33334H9.33331V2.66669H5.33331V1.33334ZM12 14C12 14.3673 11.7013 14.6667 11.3333 14.6667H3.33331C2.96531 14.6667 2.66666 14.3673 2.66666 14V4H4.66666H10H12V14H12Z" fill="#9F5DE2"/>
<path d="M5.33328 5.33331C4.96463 5.33331 4.66663 5.63197 4.66663 5.99997V12C4.66663 12.368 4.96463 12.6666 5.33328 12.6666C5.70194 12.6666 5.99994 12.368 5.99994 12V5.99997C5.99994 5.63197 5.70194 5.33331 5.33328 5.33331Z" fill="#9F5DE2"/>
<path d="M9.33328 5.33331C8.96463 5.33331 8.66663 5.63197 8.66663 5.99997V12C8.66663 12.368 8.96463 12.6666 9.33328 12.6666C9.70194 12.6666 9.99994 12.368 9.99994 12V5.99997C9.99994 5.63197 9.70194 5.33331 9.33328 5.33331Z" fill="#9F5DE2"/>
</svg>
