<svg width="20" height="22" viewBox="0 0 20 22" fill="none" xmlns="http://www.w3.org/2000/svg">
<path d="M17.6 0H2.2C1.61652 0 1.05694 0.231785 0.644365 0.644365C0.231785 1.05694 0 1.61652 0 2.2V4.4C0 4.98348 0.231785 5.54306 0.644365 5.95564C1.05694 6.36822 1.61652 6.6 2.2 6.6V18.7C2.2 19.5752 2.54768 20.4146 3.16655 21.0335C3.78542 21.6523 4.62478 22 5.5 22H14.3C15.1752 22 16.0146 21.6523 16.6335 21.0335C17.2523 20.4146 17.6 19.5752 17.6 18.7V6.6C18.1835 6.6 18.7431 6.36822 19.1556 5.95564C19.5682 5.54306 19.8 4.98348 19.8 4.4V2.2C19.8 1.61652 19.5682 1.05694 19.1556 0.644365C18.7431 0.231785 18.1835 0 17.6 0ZM15.4 15.4H8.8V11H15.4V15.4ZM15.4 8.8H7.7C7.40826 8.8 7.12847 8.91589 6.92218 9.12218C6.71589 9.32847 6.6 9.60826 6.6 9.9V16.5C6.6 16.7917 6.71589 17.0715 6.92218 17.2778C7.12847 17.4841 7.40826 17.6 7.7 17.6H15.4V18.7C15.4 18.9917 15.2841 19.2715 15.0778 19.4778C14.8715 19.6841 14.5917 19.8 14.3 19.8H5.5C5.20826 19.8 4.92847 19.6841 4.72218 19.4778C4.51589 19.2715 4.4 18.9917 4.4 18.7V6.6H15.4V8.8ZM2.2 4.4V2.2H17.6V4.4H2.2Z" fill="#9F5DE2"/>
</svg>
