<svg width="18" height="17" viewBox="0 0 18 17" fill="none" xmlns="http://www.w3.org/2000/svg">
<path d="M13.1989 0.75C14.2727 0.75 15.2859 1.18567 16.0563 1.99279H1.94375C2.71414 1.18567 3.72725 0.75 4.80105 0.75C5.8759 0.75 6.88794 1.18562 7.65841 1.99285L7.65865 1.99311L8.4577 2.8295L9.00038 3.39753L9.54266 2.82912L10.3413 1.99202C11.1118 1.18575 12.1251 0.75 13.1989 0.75ZM16.0563 1.99285C17.648 3.66092 17.6478 6.38867 16.0564 8.05533L16.5989 8.57327L16.0564 8.05534L9 15.4459L1.9436 8.05534L1.94344 8.05517C0.35237 6.3898 0.35192 3.66101 1.94369 1.99285H16.0563Z" stroke="#9F5DE2" stroke-width="1.5"/>
</svg>
