<svg width="29" height="22" viewBox="0 0 29 22" fill="none" xmlns="http://www.w3.org/2000/svg">
<path d="M9.47427 20.264C9.51248 20.2871 9.55111 20.3098 9.59014 20.332C10.7675 21.0032 12.1348 21.1756 13.4429 20.8174L24.6942 17.7363C26.0022 17.3781 27.0909 16.5331 27.7621 15.3557C29.1477 12.925 28.2974 9.81971 25.8667 8.43408C24.7221 7.78165 23.3982 7.60054 22.1236 7.91996L20.4267 9.57591L22.3177 9.05806C22.3941 9.0372 22.4707 9.01867 22.5474 9.00246L22.5493 9.01095C23.4827 8.80537 24.4588 8.95505 25.2972 9.433C27.1772 10.5047 27.8349 12.9063 26.7632 14.7863C26.308 15.5848 25.5848 16.1987 24.7251 16.5151L24.7264 16.5187C24.6167 16.5595 24.5047 16.5956 24.3904 16.6269L19.3174 18.0161L17.7274 12.21L16.7867 13.1281L18.2084 18.3198L13.1391 19.7081C13.0627 19.7289 12.9861 19.7474 12.9094 19.7637L12.9075 19.7552C12.0377 19.9467 11.1308 19.8298 10.3328 19.4262L9.47427 20.264Z" fill="#9F5DE2"/>
<path d="M6.07455 19.3972C3.27665 19.3972 1 17.1205 1 14.3226C1 12.9674 1.52739 11.6941 2.48634 10.7352L10.7352 2.48634C11.6941 1.52739 12.9674 1 14.3226 1C17.1205 1 19.3972 3.27665 19.3972 6.07455C19.3972 7.26423 18.9763 8.41942 18.2113 9.32702L17.3329 8.58576C17.9231 7.88514 18.2473 6.99364 18.2473 6.07455C18.2473 3.91058 16.4866 2.14982 14.3226 2.14982C13.2755 2.14982 12.2905 2.55839 11.5485 3.29965L3.29965 11.5485C2.55839 12.2905 2.14982 13.2755 2.14982 14.3226C2.14982 16.4866 3.91059 18.2473 6.07455 18.2473C7.03964 18.2473 7.9618 17.894 8.67085 17.2531L9.442 18.1063C8.52138 18.9388 7.32556 19.3972 6.07455 19.3972Z" fill="#9F5DE2"/>
<path d="M14.3226 1C17.1205 1 19.3972 3.27665 19.3972 6.07455C19.3972 7.42981 18.8698 8.70305 17.9108 9.662L9.662 17.9108C8.70305 18.8698 7.42981 19.3972 6.07455 19.3972C3.27665 19.3972 1 17.1205 1 14.3226C1 13.1329 1.42084 11.9777 2.18585 11.0702L3.06432 11.8114C2.47407 12.512 2.14982 13.4035 2.14982 14.3226C2.14982 16.4866 3.91059 18.2473 6.07455 18.2473C7.12166 18.2473 8.10667 17.8388 8.84869 17.0975L17.0975 8.84869C17.8388 8.10668 18.2473 7.12166 18.2473 6.07455C18.2473 3.91058 16.4866 2.14982 14.3226 2.14982C13.3575 2.14982 12.4354 2.50321 11.7263 3.14404L10.9552 2.29087C11.8758 1.4584 13.0716 1 14.3226 1Z" fill="#9F5DE2"/>
<path d="M6.79984 7.61556L7.61289 6.80251L13.4967 12.6863L12.6836 13.4994L6.79984 7.61556Z" fill="#9F5DE2"/>
<path d="M6.07455 19.3972C3.27665 19.3972 1 17.1205 1 14.3226M6.07455 19.3972C7.32556 19.3972 8.52138 18.9388 9.442 18.1063L8.67085 17.2531C7.9618 17.894 7.03964 18.2473 6.07455 18.2473M6.07455 19.3972C7.42981 19.3972 8.70305 18.8698 9.662 17.9108L17.9108 9.662C18.8698 8.70305 19.3972 7.42981 19.3972 6.07455M1 14.3226C1 12.9674 1.52739 11.6941 2.48634 10.7352L10.7352 2.48634C11.6941 1.52739 12.9674 1 14.3226 1M1 14.3226C1 13.1329 1.42084 11.9777 2.18585 11.0702L3.06432 11.8114C2.47407 12.512 2.14982 13.4035 2.14982 14.3226M14.3226 1C17.1205 1 19.3972 3.27665 19.3972 6.07455M14.3226 1C13.0716 1 11.8758 1.4584 10.9552 2.29087L11.7263 3.14404C12.4354 2.50321 13.3575 2.14982 14.3226 2.14982M19.3972 6.07455C19.3972 7.26423 18.9763 8.41942 18.2113 9.32702L17.3329 8.58576C17.9231 7.88514 18.2473 6.99364 18.2473 6.07455M18.2473 6.07455C18.2473 3.91058 16.4866 2.14982 14.3226 2.14982M18.2473 6.07455C18.2473 7.12166 17.8388 8.10668 17.0975 8.84869L8.84869 17.0975C8.10667 17.8388 7.12166 18.2473 6.07455 18.2473M14.3226 2.14982C13.2755 2.14982 12.2905 2.55839 11.5485 3.29965L3.29965 11.5485C2.55839 12.2905 2.14982 13.2755 2.14982 14.3226M2.14982 14.3226C2.14982 16.4866 3.91059 18.2473 6.07455 18.2473M9.47427 20.264C9.51248 20.2871 9.55111 20.3098 9.59014 20.332C10.7675 21.0032 12.1348 21.1756 13.4429 20.8174L24.6942 17.7363C26.0022 17.3781 27.0909 16.5331 27.7621 15.3557C29.1477 12.925 28.2974 9.8197 25.8667 8.43408C24.7221 7.78165 23.3982 7.60054 22.1236 7.91996L20.4267 9.57591L22.3177 9.05806C22.3941 9.0372 22.4707 9.01867 22.5474 9.00246L22.5493 9.01095C23.4827 8.80537 24.4588 8.95505 25.2972 9.433C27.1772 10.5047 27.8349 12.9063 26.7632 14.7863C26.308 15.5848 25.5848 16.1987 24.7251 16.5151L24.7264 16.5187C24.6167 16.5595 24.5047 16.5956 24.3904 16.6269L19.3174 18.0161L17.7274 12.21L16.7867 13.1281L18.2084 18.3198L13.1391 19.7081C13.0627 19.7289 12.9861 19.7474 12.9094 19.7637L12.9075 19.7552C12.0377 19.9467 11.1308 19.8298 10.3328 19.4262L9.47427 20.264ZM6.79984 7.61556L7.61289 6.80251L13.4967 12.6863L12.6836 13.4994L6.79984 7.61556Z" stroke="#9F5DE2" stroke-width="0.5"/>
</svg>
