<svg width="20" height="20" viewBox="0 0 20 20" fill="none" xmlns="http://www.w3.org/2000/svg">
<path d="M6.36364 18.1818H2.72727C2.48617 18.1818 2.25494 18.086 2.08445 17.9156C1.91396 17.7451 1.81818 17.5138 1.81818 17.2727V13.6364C1.81818 13.3953 1.7224 13.164 1.55192 12.9935C1.38143 12.8231 1.1502 12.7273 0.909091 12.7273C0.667985 12.7273 0.436754 12.8231 0.266267 12.9935C0.0957789 13.164 0 13.3953 0 13.6364V17.2727C0 17.996 0.287337 18.6897 0.7988 19.2012C1.31026 19.7127 2.00396 20 2.72727 20H6.36364C6.60474 20 6.83597 19.9042 7.00646 19.7337C7.17695 19.5632 7.27273 19.332 7.27273 19.0909C7.27273 18.8498 7.17695 18.6186 7.00646 18.4481C6.83597 18.2776 6.60474 18.1818 6.36364 18.1818ZM19.0909 12.7273C18.8498 12.7273 18.6186 12.8231 18.4481 12.9935C18.2776 13.164 18.1818 13.3953 18.1818 13.6364V17.2727C18.1818 17.5138 18.086 17.7451 17.9156 17.9156C17.7451 18.086 17.5138 18.1818 17.2727 18.1818H13.6364C13.3953 18.1818 13.164 18.2776 12.9935 18.4481C12.8231 18.6186 12.7273 18.8498 12.7273 19.0909C12.7273 19.332 12.8231 19.5632 12.9935 19.7337C13.164 19.9042 13.3953 20 13.6364 20H17.2727C17.996 20 18.6897 19.7127 19.2012 19.2012C19.7127 18.6897 20 17.996 20 17.2727V13.6364C20 13.3953 19.9042 13.164 19.7337 12.9935C19.5632 12.8231 19.332 12.7273 19.0909 12.7273ZM17.2727 0H13.6364C13.3953 0 13.164 0.0957789 12.9935 0.266267C12.8231 0.436754 12.7273 0.667985 12.7273 0.909091C12.7273 1.1502 12.8231 1.38143 12.9935 1.55192C13.164 1.7224 13.3953 1.81818 13.6364 1.81818H17.2727C17.5138 1.81818 17.7451 1.91396 17.9156 2.08445C18.086 2.25494 18.1818 2.48617 18.1818 2.72727V6.36364C18.1818 6.60474 18.2776 6.83597 18.4481 7.00646C18.6186 7.17695 18.8498 7.27273 19.0909 7.27273C19.332 7.27273 19.5632 7.17695 19.7337 7.00646C19.9042 6.83597 20 6.60474 20 6.36364V2.72727C20 2.00396 19.7127 1.31026 19.2012 0.7988C18.6897 0.287337 17.996 0 17.2727 0ZM0.909091 7.27273C1.1502 7.27273 1.38143 7.17695 1.55192 7.00646C1.7224 6.83597 1.81818 6.60474 1.81818 6.36364V2.72727C1.81818 2.48617 1.91396 2.25494 2.08445 2.08445C2.25494 1.91396 2.48617 1.81818 2.72727 1.81818H6.36364C6.60474 1.81818 6.83597 1.7224 7.00646 1.55192C7.17695 1.38143 7.27273 1.1502 7.27273 0.909091C7.27273 0.667985 7.17695 0.436754 7.00646 0.266267C6.83597 0.0957789 6.60474 0 6.36364 0H2.72727C2.00396 0 1.31026 0.287337 0.7988 0.7988C0.287337 1.31026 0 2.00396 0 2.72727V6.36364C0 6.60474 0.0957789 6.83597 0.266267 7.00646C0.436754 7.17695 0.667985 7.27273 0.909091 7.27273ZM8.18182 3.63636H4.54545C4.30435 3.63636 4.07312 3.73214 3.90263 3.90263C3.73214 4.07312 3.63636 4.30435 3.63636 4.54545V8.18182C3.63636 8.42292 3.73214 8.65415 3.90263 8.82464C4.07312 8.99513 4.30435 9.09091 4.54545 9.09091H8.18182C8.42292 9.09091 8.65415 8.99513 8.82464 8.82464C8.99513 8.65415 9.09091 8.42292 9.09091 8.18182V4.54545C9.09091 4.30435 8.99513 4.07312 8.82464 3.90263C8.65415 3.73214 8.42292 3.63636 8.18182 3.63636ZM7.27273 7.27273H5.45455V5.45455H7.27273V7.27273ZM11.8182 9.09091H15.4545C15.6957 9.09091 15.9269 8.99513 16.0974 8.82464C16.2679 8.65415 16.3636 8.42292 16.3636 8.18182V4.54545C16.3636 4.30435 16.2679 4.07312 16.0974 3.90263C15.9269 3.73214 15.6957 3.63636 15.4545 3.63636H11.8182C11.5771 3.63636 11.3458 3.73214 11.1754 3.90263C11.0049 4.07312 10.9091 4.30435 10.9091 4.54545V8.18182C10.9091 8.42292 11.0049 8.65415 11.1754 8.82464C11.3458 8.99513 11.5771 9.09091 11.8182 9.09091ZM12.7273 5.45455H14.5455V7.27273H12.7273V5.45455ZM8.18182 10.9091H4.54545C4.30435 10.9091 4.07312 11.0049 3.90263 11.1754C3.73214 11.3458 3.63636 11.5771 3.63636 11.8182V15.4545C3.63636 15.6957 3.73214 15.9269 3.90263 16.0974C4.07312 16.2679 4.30435 16.3636 4.54545 16.3636H8.18182C8.42292 16.3636 8.65415 16.2679 8.82464 16.0974C8.99513 15.9269 9.09091 15.6957 9.09091 15.4545V11.8182C9.09091 11.5771 8.99513 11.3458 8.82464 11.1754C8.65415 11.0049 8.42292 10.9091 8.18182 10.9091ZM7.27273 14.5455H5.45455V12.7273H7.27273V14.5455ZM11.8182 13.6364C12.0593 13.6364 12.2905 13.5406 12.461 13.3701C12.6315 13.1996 12.7273 12.9684 12.7273 12.7273C12.9684 12.7273 13.1996 12.6315 13.3701 12.461C13.5406 12.2905 13.6364 12.0593 13.6364 11.8182C13.6364 11.5771 13.5406 11.3458 13.3701 11.1754C13.1996 11.0049 12.9684 10.9091 12.7273 10.9091H11.8182C11.5771 10.9091 11.3458 11.0049 11.1754 11.1754C11.0049 11.3458 10.9091 11.5771 10.9091 11.8182V12.7273C10.9091 12.9684 11.0049 13.1996 11.1754 13.3701C11.3458 13.5406 11.5771 13.6364 11.8182 13.6364ZM15.4545 10.9091C15.2134 10.9091 14.9822 11.0049 14.8117 11.1754C14.6412 11.3458 14.5455 11.5771 14.5455 11.8182V14.5455C14.3043 14.5455 14.0731 14.6412 13.9026 14.8117C13.7321 14.9822 13.6364 15.2134 13.6364 15.4545C13.6364 15.6957 13.7321 15.9269 13.9026 16.0974C14.0731 16.2679 14.3043 16.3636 14.5455 16.3636H15.4545C15.6957 16.3636 15.9269 16.2679 16.0974 16.0974C16.2679 15.9269 16.3636 15.6957 16.3636 15.4545V11.8182C16.3636 11.5771 16.2679 11.3458 16.0974 11.1754C15.9269 11.0049 15.6957 10.9091 15.4545 10.9091ZM11.8182 14.5455C11.6384 14.5455 11.4626 14.5988 11.3131 14.6987C11.1636 14.7986 11.0471 14.9405 10.9783 15.1067C10.9095 15.2728 10.8915 15.4556 10.9266 15.6319C10.9616 15.8082 11.0482 15.9702 11.1754 16.0974C11.3025 16.2245 11.4645 16.3111 11.6408 16.3462C11.8172 16.3812 12 16.3632 12.1661 16.2944C12.3322 16.2256 12.4742 16.1091 12.5741 15.9596C12.674 15.8101 12.7273 15.6343 12.7273 15.4545C12.7273 15.2134 12.6315 14.9822 12.461 14.8117C12.2905 14.6412 12.0593 14.5455 11.8182 14.5455Z" fill="#9F5DE2"/>
</svg>
